#!OML:ASF H:\Dans Jumps\Project 1\Capture day 1\Session 1\subject.ASF
:FULLY-SPECIFIED
:DEGREES
345
root 0.3319 15.992 3.1617 0.0504741 0.971371 -0.845719
lowerback 13.6201 1.45501 -2.37879
upperback 5.7214 1.66099 1.33503
thorax -1.71875 0.783247 2.48779
lowerneck -15.8122 -0.782546 -1.06534
upperneck 28.6562 -1.31251 1.69431
head 12.0617 -0.47277 0.626052
rclavicle 1.47101e-014 0
rhumerus -27.6708 -22.7327 -73.7037
rradius 20.6954
rwrist 46.4135
rhand -22.1511 -27.6115
rfingers 7.12502
rthumb 4.26282 -57.5486
lclavicle 1.47101e-014 0
lhumerus -29.9661 19.1145 77.4666
lradius 10.0792
lwrist -4.36229
lhand -25.7471 -11.4178
lfingers 7.12502
lthumb 0.789981 18.5605
rfemur -39.6352 -3.23314 19.9277
rtibia 55.8106
rfoot -12.8897 1.73013
rtoes 9.83032
lfemur -39.2889 6.74138 -18.6149
ltibia 51.5906
lfoot -8.77337 2.87211
ltoes -3.54776
346
root 0.325445 15.8729 3.26945 -0.0914291 0.722823 -0.665979
lowerback 13.9328 1.5239 -2.63947
upperback 5.92268 1.70936 1.26697
thorax -1.6821 0.80121 2.55336
lowerneck -15.9952 -0.713987 -0.958145
upperneck 28.2665 -1.23074 1.66424
head 11.943 -0.42977 0.605964
rclavicle 2.61402e-014 1.63003e-014
rhumerus -26.8063 -21.5025 -74.7913
rradius 21.3337
rwrist 44.9377
rhand -22.3865 -27.6372
rfingers 7.12502
rthumb 4.03551 -57.5788
lclavicle 2.61402e-014 1.63003e-014
lhumerus -29.496 16.8158 79.0814
lradius 10.7332
lwrist -2.07996
lhand -25.9294 -11.468
lfingers 7.12502
lthumb 0.613944 18.5109
rfemur -40.5036 -3.09974 19.8281
rtibia 58.2623
rfoot -14.0565 1.28421
rtoes 8.66448
lfemur -40.0966 6.60012 -18.6494
ltibia 54.1197
lfoot -9.84742 3.85282
ltoes -3.90452
347
root 0.321359 15.7915 3.37518 -0.385832 0.619601 -0.760041
lowerback 14.2825 1.51437 -2.56712
upperback 6.17231 1.69781 1.26853
thorax -1.60394 0.791995 2.51257
lowerneck -16.0742 -0.659829 -0.886973
upperneck 28.0055 -1.17509 1.67833
head 11.8555 -0.396617 0.605638
rclavicle 2.0773e-014 -1.39149e-015
rhumerus -25.9962 -20.1124 -75.8749
rradius 21.917
rwrist 43.3407
rhand -22.5704 -27.5186
rfingers 7.12502
rthumb 3.85799 -57.4634
lclavicle 2.0773e-014 -1.39149e-015
lhumerus -29.069 14.7583 80.4936
lradius 11.2635
lwrist -0.102129
lhand -25.8758 -11.3866
lfingers 7.12502
lthumb 0.665669 18.5921
rfemur -40.6417 -3.16988 20.0404
rtibia 59.8522
rfoot -15.053 0.832284
rtoes 7.51021
lfemur -40.3105 6.59887 -18.4422
ltibia 55.9144
lfoot -10.8209 4.59019
ltoes -4.79106
348
root 0.321109 15.7421 3.47518 -0.756658 0.615924 -1.19598
lowerback 14.6547 1.43079 -2.08843
upperback 6.41719 1.64512 1.35825
thorax -1.53264 0.768229 2.34053
lowerneck -16.0715 -0.626095 -0.868335
upperneck 27.9514 -1.15106 1.74053
head 11.8338 -0.376498 0.6288
rclavicle -1.47101e-014 -2.48481e-015
rhumerus -25.2536 -18.7412 -76.8551
rradius 22.355
rwrist 42.0486
rhand -22.6681 -27.318
rfingers 7.12502
rthumb 3.76357 -57.2646
lclavicle -1.47101e-014 -2.48481e-015
lhumerus -28.6743 13.0648 81.6687
lradius 11.627
lwrist 1.39515
lhand -25.5082 -11.021
lfingers 7.12502
lthumb 1.02075 18.9563
rfemur -40.2623 -3.39582 20.6363
rtibia 60.7119
rfoot -15.8568 0.371605
rtoes 6.46796
lfemur -40.1424 6.7118 -17.9113
ltibia 57.1131
lfoot -11.6089 5.13152
ltoes -6.12917
349
root 0.322494 15.7164 3.56828 -1.02952 0.685611 -1.72832
lowerback 14.9495 1.3078 -1.48824
upperback 6.59151 1.56204 1.47625
thorax -1.49059 0.733096 2.13512
lowerneck -16.0405 -0.609696 -0.86611
upperneck 28.1415 -1.15135 1.80451
head 11.9023 -0.367779 0.653342
rclavicle 1.00883e-014 1.0138e-014
rhumerus -24.596 -17.5403 -77.6758
rradius 22.6342
rwrist 41.3477
rhand -22.632 -27.1398
rfingers 7.12502
rthumb 3.79849 -57.0857
lclavicle 1.00883e-014 1.0138e-014
lhumerus -28.3052 11.758 82.6119
lradius 11.8171
lwrist 2.28594
lhand -24.9746 -10.3453
lfingers 7.12502
lthumb 1.53607 19.6289
rfemur -39.7199 -3.66863 21.3282
rtibia 61.0707
rfoot -16.4993 -0.0971631
rtoes 5.8215
lfemur -39.89 6.81314 -17.3083
ltibia 57.8732
lfoot -12.1877 5.54652
ltoes -7.40555
350
root 0.3237 15.7084 3.65519 -1.1449 0.780106 -2.17479
lowerback 15.1336 1.187 -0.97846
upperback 6.68754 1.47315 1.57562
thorax -1.47402 0.695388 1.96352
lowerneck -16.0036 -0.610172 -0.878836
upperneck 28.5244 -1.17511 1.8698
head 12.0466 -0.370028 0.678861
rclavicle 1.66482e-014 6.95746e-015
rhumerus -24.0218 -16.6511 -78.3148
rradius 22.7792
rwrist 41.3386
rhand -22.4806 -27.0229
rfingers 7.12502
rthumb 3.94467 -56.9662
lclavicle 1.66482e-014 6.95746e-015
lhumerus -27.9577 10.9053 83.2992
lradius 11.856
lwrist 2.45682
lhand -24.3642 -9.58191
lfingers 7.12502
lthumb 2.1256 20.3872
rfemur -39.2063 -3.922 21.9088
rtibia 61.1183
rfoot -17.0352 -0.487395
rtoes 5.7664
lfemur -39.6739 6.85789 -16.8119
ltibia 58.3243
lfoot -12.606 5.87186
ltoes -8.34761
351
root 0.323709 15.7123 3.73669 -1.04247 0.869994 -2.42088
lowerback 15.154 1.09315 -0.685486
upperback 6.70613 1.39094 1.6221
thorax -1.45675 0.658765 1.8598
lowerneck -15.9645 -0.621099 -0.889342
upperneck 28.9908 -1.21347 1.92569
head 12.2252 -0.379256 0.699115
rclavicle -7.25564e-015 -4.77083e-015
rhumerus -23.5236 -16.1537 -78.789
rradius 22.8483
rwrist 41.8563
rhand -22.2585 -26.9687
rfingers 7.12502
rthumb 4.15912 -56.9079
lclavicle -7.25564e-015 -4.77083e-015
lhumerus -27.6368 10.5227 83.7242
lradius 11.7996
lwrist 1.93466
lhand -23.7817 -8.80435
lfingers 7.12502
lthumb 2.68818 21.1585
rfemur -38.8718 -4.13388 22.2611
rtibia 60.9854
rfoot -17.5038 -0.802521
rtoes 5.93716
lfemur -39.5913 6.81569 -16.5401
ltibia 58.5389
lfoot -12.8873 6.14308
ltoes -8.90689
352
root 0.322074 15.7297 3.81306 -0.740012 0.91809 -2.44043
lowerback 15.0156 1.04308 -0.636874
upperback 6.67295 1.33163 1.60294
thorax -1.41481 0.630382 1.82336
lowerneck -15.9291 -0.644027 -0.926613
upperneck 29.4429 -1.27166 2.01434
head 12.4015 -0.39587 0.733607
rclavicle 2.48481e-015 1.49089e-015
rhumerus -23.0998 -16.0228 -79.1449
rradius 22.9192
rwrist 42.532
rhand -22.0593 -26.9752
rfingers 7.12502
rthumb 4.35149 -56.9105
lclavicle 2.48481e-015 1.49089e-015
lhumerus -27.35 10.5582 83.9066
lradius 11.7078
lwrist 0.887488
lhand -23.3588 -8.20946
lfingers 7.12502
lthumb 3.09657 21.7478
rfemur -38.7093 -4.24718 22.3559
rtibia 60.7077
rfoot -17.8979 -1.05458
rtoes 6.12825
lfemur -39.6065 6.71102 -16.5121
ltibia 58.5249
lfoot -13.0528 6.37381
ltoes -9.12305
353
root 0.319074 15.7631 3.88445 -0.296707 0.902868 -2.29599
lowerback 14.7567 1.03506 -0.767288
upperback 6.62092 1.30241 1.53315
thorax -1.33232 0.614338 1.8316
lowerneck -15.905 -0.674318 -0.975284
upperneck 29.8097 -1.33989 2.11478
head 12.5476 -0.416872 0.772745
rclavicle 5.2181e-015 7.35503e-015
rhumerus -22.7395 -16.1462 -79.4349
rradius 23.0448
rwrist 42.9595
rhand -21.976 -27.0235
rfingers 7.12502
rthumb 4.43197 -56.9571
lclavicle 5.2181e-015 7.35503e-015
lhumerus -27.0961 10.9533 83.8836
lradius 11.6211
lwrist -0.426251
lhand -23.1747 -7.89802
lfingers 7.12502
lthumb 3.27442 22.0566
rfemur -38.6424 -4.25591 22.2609
rtibia 60.273
rfoot -18.194 -1.21949
rtoes 6.37099
lfemur -39.6432 6.5975 -16.6595
ltibia 58.2759
lfoot -13.1245 6.55642
ltoes -9.03843
354
root 0.315369 15.8128 3.95152 0.211712 0.821667 -2.09152
lowerback 14.4288 1.05648 -0.970677
upperback 6.57854 1.30285 1.44324
thorax -1.20485 0.611539 1.85643
lowerneck -15.8827 -0.707143 -1.02605
upperneck 30.0435 -1.40788 2.21128
head 12.641 -0.439078 0.809975
rclavicle -1.4064e-014 -1.17283e-014
rhumerus -22.4262 -16.394 -79.6988
rradius 23.2395
rwrist 42.8756
rhand -22.0468 -27.1078
rfingers 7.12502
rthumb 4.36353 -57.0429
lclavicle -1.4064e-014 -1.17283e-014
lhumerus -26.8717 11.5638 83.7362
lradius 11.5781
lwrist -1.62916
lhand -23.2153 -7.83759
lfingers 7.12502
lthumb 3.23518 22.1176
rfemur -38.5716 -4.18162 22.0894
rtibia 59.6562
rfoot -18.3491 -1.29206
rtoes 6.54285
lfemur -39.6158 6.50847 -16.8659
ltibia 57.7865
lfoot -13.118 6.68634
ltoes -8.71606
355
root 0.312022 15.8784 4.01491 0.71948 0.690897 -1.92527
lowerback 14.1003 1.09066 -1.14135
upperback 6.54894 1.32585 1.36278
thorax -1.06368 0.620053 1.86958
lowerneck -15.849 -0.738425 -1.05907
upperneck 30.1403 -1.46596 2.27476
head 12.6758 -0.459964 0.831958
rclavicle 3.45388e-015 -5.36719e-015
rhumerus -22.1811 -16.6201 -79.9514
rradius 23.4971
rwrist 42.2351
rhand -22.2616 -27.22
rfingers 7.12502
rthumb 4.15618 -57.1592
lclavicle 3.45388e-015 -5.36719e-015
lhumerus -26.6917 12.1767 83.5683
lradius 11.6012
lwrist -2.32786
lhand -23.5154 -7.97561
lfingers 7.12502
lthumb 2.94537 21.9838
rfemur -38.412 -4.02709 21.941
rtibia 58.8471
rfoot -18.3397 -1.28432
rtoes 6.68865
lfemur -39.4562 6.45088 -17.023
ltibia 57.0636
lfoot -13.0496 6.768
ltoes -8.24827
